<?xml version="1.0" encoding="utf-8"?>
<!-- Generator: Adobe Illustrator 23.0.2, SVG Export Plug-In . SVG Version: 6.00 Build 0)  -->
<svg version="1.1" id="Layer_1" xmlns="http://www.w3.org/2000/svg" xmlns:xlink="http://www.w3.org/1999/xlink" x="0px" y="0px"
	 viewBox="0 0 20 20" style="enable-background:new 0 0 20 20;" xml:space="preserve">
<style type="text/css">
	.st0{fill:#CC0000;}
</style>
<g id="zUJ28R.tif">
	<g>
		<path class="st0" d="M12.9,19.6c-0.6-0.1-1.2-0.2-1.8-0.4c-0.9-0.3-1.7-0.3-2.6,0c-0.9,0.3-1.9,0.4-2.9,0.2c-1.3-0.3-2-1.8-1.3-3
			c0.4-0.6,0.9-1.1,1.4-1.4c0.6-0.4,1.1-1,1.3-1.7c0.4-1.2,1.5-1.9,2.6-1.9c1.3,0,2.3,0.7,2.7,1.8c0.3,0.7,0.7,1.3,1.4,1.7
			c0.5,0.3,1,0.8,1.3,1.3c0.8,1.2,0.2,2.9-1.3,3.2C13.6,19.4,13.2,19.5,12.9,19.6C12.9,19.5,12.9,19.5,12.9,19.6z"/>
		<path class="st0" d="M10.2,6.9c0-1.1,0.1-2.1,0.6-2.9c0.2-0.3,0.4-0.5,0.6-0.8c0.5-0.4,1-0.4,1.5,0.1c0.5,0.4,0.7,1,0.9,1.6
			c0.4,1.4,0.4,2.8-0.2,4.2c-0.1,0.4-0.4,0.7-0.6,1c-0.5,0.5-1.1,0.5-1.6,0c-0.5-0.5-0.8-1.2-0.9-1.9C10.3,7.7,10.3,7.2,10.2,6.9z"
			/>
		<path class="st0" d="M5.6,6.7c0-1.1,0.2-2,0.6-2.8c0.1-0.2,0.3-0.5,0.5-0.7c0.5-0.4,1.1-0.4,1.5,0c0.2,0.2,0.5,0.5,0.6,0.8
			c0.7,1.7,0.7,3.4,0,5.2c-0.2,0.4-0.4,0.7-0.7,0.9c-0.4,0.3-0.9,0.3-1.3,0C6.4,9.9,6.2,9.5,6,9C5.7,8.2,5.6,7.4,5.6,6.7z"/>
		<path class="st0" d="M5.3,11.1c0,1.2-0.1,2.2-0.7,3.1c-0.1,0.2-0.3,0.4-0.4,0.5c-0.5,0.5-1.1,0.5-1.6,0c-0.4-0.4-0.7-0.9-0.8-1.4
			c-0.5-1.5-0.4-3,0.2-4.5C2.1,8.6,2.3,8.3,2.6,8c0.5-0.5,1.1-0.5,1.6,0C4.7,8.6,5,9.3,5.1,10C5.2,10.4,5.2,10.8,5.3,11.1z"/>
		<path class="st0" d="M14.3,11.5c0-1.1,0.2-2.1,0.7-3c0.1-0.2,0.3-0.4,0.5-0.6C16,7.5,16.6,7.6,17.1,8c0.5,0.5,0.8,1.2,0.9,1.9
			c0.3,1.4,0.2,2.7-0.4,4c-0.1,0.3-0.3,0.6-0.5,0.8c-0.5,0.6-1.3,0.6-1.8,0c-0.5-0.6-0.8-1.4-0.9-2.2C14.4,12.1,14.4,11.8,14.3,11.5
			z"/>
		<path class="st0" d="M8,0.7C7.9,1.3,7.8,1.9,8.1,2.4c0.1,0.1,0,0.2-0.1,0.2C7.6,2.4,7.3,2.4,7,2.5c-0.2,0.1-0.2,0-0.2-0.2
			c0-0.1,0-0.2,0.1-0.3C7.2,1.6,7.5,1.2,8,0.7z"/>
		<path class="st0" d="M15.6,7.2c0.3-0.6,0.3-1.2,0.2-1.8c0.4,0.4,0.9,0.9,1,1.5c0.1,0.2,0,0.3-0.2,0.2c-0.2,0-0.5,0-0.7,0
			C15.8,7.1,15.7,7.1,15.6,7.2z"/>
		<path class="st0" d="M11.7,0.7c0.5,0.5,0.9,1,1.1,1.6c0.1,0.2,0,0.3-0.2,0.2c-0.2,0-0.5,0-0.8,0c-0.1,0-0.2,0-0.2-0.1
			C11.8,1.9,11.8,1.3,11.7,0.7z"/>
		<path class="st0" d="M3.8,5.4c0,0.2-0.1,0.5,0,0.7c0,0.3,0.1,0.5,0.1,0.8c0,0.1,0,0.1,0,0.2c-0.1,0-0.1,0-0.2,0
			c-0.3,0-0.5,0-0.8,0c-0.2,0-0.2,0-0.2-0.2c0-0.1,0.1-0.2,0.1-0.3C3.2,6.2,3.5,5.8,3.8,5.4C3.8,5.4,3.8,5.4,3.8,5.4z"/>
	</g>
</g>
</svg>
